HIERARCHY
ROOT hip
{
  OFFSET 0 0 0
  CHANNELS 6 Xposition Yposition Zposition Zrotation Yrotation Xrotation
  JOINT abdomen
  {
    OFFSET 0 20.6881 -0.73152
    CHANNELS 3 Zrotation Xrotation Yrotation
    JOINT chest
    {
      OFFSET 0 11.7043 -0.48768
      CHANNELS 3 Zrotation Xrotation Yrotation
      JOINT neck
      {
        OFFSET 0 22.1894 -2.19456
        CHANNELS 3 Zrotation Xrotation Yrotation
        JOINT head
        {
          OFFSET -0.24384 7.07133 1.2192
          CHANNELS 3 Zrotation Xrotation Yrotation
          JOINT leftEye
          {
            OFFSET 4.14528 8.04674 8.04672
            CHANNELS 3 Zrotation Xrotation Yrotation
            End Site
            {
              OFFSET 1 0 0
            }
          }
          JOINT rightEye
          {
            OFFSET -3.6576 8.04674 8.04672
            CHANNELS 3 Zrotation Xrotation Yrotation
            End Site
            {
              OFFSET 1 0 0
            }
          }
        }
      }
      JOINT rCollar
      {
        OFFSET -2.68224 19.2634 -4.8768
        CHANNELS 3 Zrotation Xrotation Yrotation
        JOINT rShldr
        {
          OFFSET -8.77824 -1.95073 1.46304
          CHANNELS 3 Zrotation Xrotation Yrotation
          JOINT rForeArm
          {
            OFFSET -28.1742 -1.7115 0.48768
            CHANNELS 3 Zrotation Xrotation Yrotation
            JOINT rHand
            {
              OFFSET -22.5879 0.773209 7.07136
              CHANNELS 3 Zrotation Xrotation Yrotation
              JOINT rThumb1
              {
                OFFSET -1.2192 -0.487915 3.41376
                CHANNELS 3 Zrotation Xrotation Yrotation
                JOINT rThumb2
                {
                  OFFSET -3.37035 -0.52449 3.41376
                  CHANNELS 3 Zrotation Xrotation Yrotation
                  End Site
                  {
                    OFFSET -1.78271 -1.18214 1.43049
                  }
                }
              }
              JOINT rIndex1
              {
                OFFSET -7.75947 0.938293 5.60832
                CHANNELS 3 Zrotation Xrotation Yrotation
                JOINT rIndex2
                {
                  OFFSET -2.54057 -0.884171 1.56538
                  CHANNELS 3 Zrotation Xrotation Yrotation
                  End Site
                  {
                    OFFSET -1.62519 -0.234802 1.16502
                  }
                }
              }
              JOINT rMid1
              {
                OFFSET -8.24714 1.18213 3.41376
                CHANNELS 3 Zrotation Xrotation Yrotation
                JOINT rMid2
                {
                  OFFSET -3.10165 -0.590103 1.0647
                  CHANNELS 3 Zrotation Xrotation Yrotation
                  End Site
                  {
                    OFFSET -2.48547 -0.328903 0.83742
                  }
                }
              }
              JOINT rRing1
              {
                OFFSET -8.82822 0.546677 1.51678
                CHANNELS 3 Zrotation Xrotation Yrotation
                JOINT rRing2
                {
                  OFFSET -2.60934 -0.819778 -0.0198488
                  CHANNELS 3 Zrotation Xrotation Yrotation
                  End Site
                  {
                    OFFSET -2.33842 -0.294052 0.168128
                  }
                }
              }
              JOINT rPinky1
              {
                OFFSET -8.27202 -0.0477905 -0.4584
                CHANNELS 3 Zrotation Xrotation Yrotation
                JOINT rPinky2
                {
                  OFFSET -1.82734 -0.647385 -0.700984
                  CHANNELS 3 Zrotation Xrotation Yrotation
                  End Site
                  {
                    OFFSET -1.69225 -0.51767 -0.607171
                  }
                }
              }
            }
          }
        }
      }
      JOINT lCollar
      {
        OFFSET 2.68224 19.2634 -4.8768
        CHANNELS 3 Zrotation Xrotation Yrotation
        JOINT lShldr
        {
          OFFSET 8.77824 -1.95073 1.46304
          CHANNELS 3 Zrotation Xrotation Yrotation
          JOINT lForeArm
          {
            OFFSET 28.1742 -1.7115 0.48768
            CHANNELS 3 Zrotation Xrotation Yrotation
            JOINT lHand
            {
              OFFSET 22.5879 0.773209 7.07136
              CHANNELS 3 Zrotation Xrotation Yrotation
              JOINT lThumb1
              {
                OFFSET 1.2192 -0.487915 3.41376
                CHANNELS 3 Zrotation Xrotation Yrotation
                JOINT lThumb2
                {
                  OFFSET 3.37035 -0.52449 3.41376
                  CHANNELS 3 Zrotation Xrotation Yrotation
                  End Site
                  {
                    OFFSET 1.78271 -1.18214 1.43049
                  }
                }
              }
              JOINT lIndex1
              {
                OFFSET 7.75947 0.938293 5.60832
                CHANNELS 3 Zrotation Xrotation Yrotation
                JOINT lIndex2
                {
                  OFFSET 2.54057 -0.884171 1.56538
                  CHANNELS 3 Zrotation Xrotation Yrotation
                  End Site
                  {
                    OFFSET 1.62519 -0.234802 1.16502
                  }
                }
              }
              JOINT lMid1
              {
                OFFSET 8.24714 1.18213 3.41376
                CHANNELS 3 Zrotation Xrotation Yrotation
                JOINT lMid2
                {
                  OFFSET 3.10165 -0.590103 1.0647
                  CHANNELS 3 Zrotation Xrotation Yrotation
                  End Site
                  {
                    OFFSET 2.48547 -0.328903 0.83742
                  }
                }
              }
              JOINT lRing1
              {
                OFFSET 8.82822 0.546677 1.51678
                CHANNELS 3 Zrotation Xrotation Yrotation
                JOINT lRing2
                {
                  OFFSET 2.60934 -0.819778 -0.0198488
                  CHANNELS 3 Zrotation Xrotation Yrotation
                  End Site
                  {
                    OFFSET 2.33842 -0.294052 0.168128
                  }
                }
              }
              JOINT lPinky1
              {
                OFFSET 8.27202 -0.0477905 -0.4584
                CHANNELS 3 Zrotation Xrotation Yrotation
                JOINT lPinky2
                {
                  OFFSET 1.82734 -0.647385 -0.700984
                  CHANNELS 3 Zrotation Xrotation Yrotation
                  End Site
                  {
                    OFFSET 1.69225 -0.51767 -0.607171
                  }
                }
              }
            }
          }
        }
      }
    }
  }
  JOINT rButtock
  {
    OFFSET -8.77824 4.35084 1.2192
    CHANNELS 3 Zrotation Xrotation Yrotation
    JOINT rThigh
    {
      OFFSET 0 -1.70687 -2.19456
      CHANNELS 3 Zrotation Xrotation Yrotation
      JOINT rShin
      {
        OFFSET 0 -36.8199 0.73152
        CHANNELS 3 Zrotation Xrotation Yrotation
        JOINT rFoot
        {
          OFFSET 0.73152 -45.1104 -5.12064
          CHANNELS 3 Zrotation Xrotation Yrotation
          End Site
          {
            OFFSET -1.1221 -3.69964 12.103
          }
        }
      }
    }
  }
  JOINT lButtock
  {
    OFFSET 8.77824 4.35084 1.2192
    CHANNELS 3 Zrotation Xrotation Yrotation
    JOINT lThigh
    {
      OFFSET 0 -1.70687 -2.19456
      CHANNELS 3 Zrotation Xrotation Yrotation
      JOINT lShin
      {
        OFFSET 0 -36.8199 0.73152
        CHANNELS 3 Zrotation Xrotation Yrotation
        JOINT lFoot
        {
          OFFSET -0.73152 -45.1104 -5.12064
          CHANNELS 3 Zrotation Xrotation Yrotation
          End Site
          {
            OFFSET 1.1221 -3.69964 12.103
          }
        }
      }
    }
  }
}
MOTION
Frames:	5
Frame Time:	0.03333
1.0579999845504062 51.11989974975586 -3.7809999146702467 -10.71170711517334 -30.650400161743164 10.542398452758789 4.219820022583008 12.91480541229248 5.009387493133545 4.1353254318237305 -7.491771221160889 1.2810335159301758 -0.16107216477394104 15.657307624816895 6.904283046722412 5.02406120300293 -33.61594772338867 15.409577369689941 -0.0 0.0 -0.0 -0.0 0.0 -0.0 -0.0 0.0 -0.0 73.36268615722656 42.09230041503906 -26.404390335083008 -28.230894088745117 -32.25050354003906 70.8660888671875 -1.3888498544692993 -31.44642448425293 -4.930512428283691 -0.0 0.0 -0.0 -0.0 0.0 -0.0 -0.0 0.0 -0.0 7.73087739944458 5.47489595413208 0.41732463240623474 -0.0 0.0 -0.0 2.9054994583129883 0.9650753736495972 0.10300876200199127 -0.0 0.0 -0.0 10.278595924377441 0.7317469120025635 0.026285577565431595 -0.0 0.0 -0.0 2.221662759780884 -0.7335850596427917 -0.20831839740276337 -0.0 0.0 -0.0 -49.64330291748047 22.283302307128906 -33.09600067138672 17.171890258789062 -9.824578285217285 -32.184600830078125 0.609984815120697 21.622295379638672 -3.19347882270813 -0.0 0.0 -0.0 -0.0 0.0 -0.0 -0.0 0.0 -0.0 -7.73087739944458 5.47489595413208 -0.41732463240623474 -0.0 0.0 -0.0 -2.9054994583129883 0.9650753736495972 -0.10300876200199127 -0.0 0.0 -0.0 -10.278595924377441 0.7317469120025635 -0.026285577565431595 -0.0 0.0 -0.0 -2.221662759780884 -0.7335850596427917 0.20831839740276337 -0.0 0.0 -0.0 -17.911293029785156 0.13748741149902344 3.955364465713501 -0.24654750525951385 52.686893463134766 3.2189645767211914 -6.162101745605469 -16.783483505249023 -26.056493759155273 -0.0 0.0 -0.0 76.31111145019531 -58.37850570678711 65.72201538085938 3.0394175052642822 73.86711883544922 -2.818117380142212 -1.2360061407089233 6.1346330642700195 1.6588331460952759
0.8538999903976219 51.317501068115234 -4.736999929809826 -10.290197372436523 -30.403099060058594 10.144996643066406 3.771475315093994 13.201793670654297 5.173945426940918 4.0462212562561035 -7.485831260681152 1.2911821603775024 -0.23429565131664276 15.796513557434082 6.811150550842285 4.994948863983154 -34.16877365112305 15.255472183227539 -0.0 0.0 -0.0 -0.0 0.0 -0.0 -0.0 0.0 -0.0 71.53910064697266 42.295997619628906 -24.470598220825195 -28.12908935546875 -31.441503524780273 69.54901123046875 -1.2979047298431396 -30.295373916625977 -4.7161455154418945 -0.0 0.0 -0.0 -0.0 0.0 -0.0 -0.0 0.0 -0.0 7.73087739944458 5.47489595413208 0.41732463240623474 -0.0 0.0 -0.0 2.9054994583129883 0.9650753736495972 0.10300876200199127 -0.0 0.0 -0.0 10.278595924377441 0.7317469120025635 0.026285577565431595 -0.0 0.0 -0.0 2.221662759780884 -0.7335850596427917 -0.20831839740276337 -0.0 0.0 -0.0 -50.49549102783203 23.29982566833496 -31.88208770751953 17.828805923461914 -10.502474784851074 -33.6422004699707 0.5273963212966919 20.187583923339844 -2.9620063304901123 -0.0 0.0 -0.0 -0.0 0.0 -0.0 -0.0 0.0 -0.0 -7.73087739944458 5.47489595413208 -0.41732463240623474 -0.0 0.0 -0.0 -2.9054994583129883 0.9650753736495972 -0.10300876200199127 -0.0 0.0 -0.0 -10.278595924377441 0.7317469120025635 -0.026285577565431595 -0.0 0.0 -0.0 -2.221662759780884 -0.7335850596427917 0.20831839740276337 -0.0 0.0 -0.0 -17.464584350585938 -0.9813979268074036 5.618720531463623 -0.31150034070014954 54.51429748535156 3.238267421722412 -6.074270248413086 -17.336410522460938 -24.9552001953125 -0.0 0.0 -0.0 74.511474609375 -58.81468200683594 63.651275634765625 2.6900124549865723 72.35198211669922 -2.4852917194366455 -1.4372445344924927 7.23073673248291 1.7788314819335938
0.606299990977277 51.51469707489014 -5.781999924147385 -9.868500709533691 -30.116491317749023 9.722795486450195 3.32700514793396 13.462289810180664 5.365628242492676 3.8897392749786377 -7.483945369720459 1.3059124946594238 -0.3250465989112854 15.930201530456543 6.698759078979492 5.074065208435059 -34.73894500732422 15.098036766052246 -0.0 0.0 -0.0 -0.0 0.0 -0.0 -0.0 0.0 -0.0 69.9334945678711 42.431396484375 -22.75160026550293 -28.02529525756836 -30.77219581604004 68.49150085449219 -1.1570250988006592 -29.010984420776367 -4.469998836517334 -0.0 0.0 -0.0 -0.0 0.0 -0.0 -0.0 0.0 -0.0 7.73087739944458 5.47489595413208 0.41732463240623474 -0.0 0.0 -0.0 2.9054994583129883 0.9650753736495972 0.10300876200199127 -0.0 0.0 -0.0 10.278595924377441 0.7317469120025635 0.026285577565431595 -0.0 0.0 -0.0 2.221662759780884 -0.7335850596427917 -0.20831839740276337 -0.0 0.0 -0.0 -51.465492248535156 24.416101455688477 -30.456003189086914 18.54970932006836 -11.291483879089355 -35.26149368286133 0.472696989774704 18.879161834716797 -2.7573084831237793 -0.0 0.0 -0.0 -0.0 0.0 -0.0 -0.0 0.0 -0.0 -7.73087739944458 5.47489595413208 -0.41732463240623474 -0.0 0.0 -0.0 -2.9054994583129883 0.9650753736495972 -0.10300876200199127 -0.0 0.0 -0.0 -10.278595924377441 0.7317469120025635 -0.026285577565431595 -0.0 0.0 -0.0 -2.221662759780884 -0.7335850596427917 0.20831839740276337 -0.0 0.0 -0.0 -16.897804260253906 -2.0083436965942383 7.39451789855957 -0.38112419843673706 56.16788864135742 3.2476084232330322 -6.051231861114502 -17.93761444091797 -23.98719024658203 -0.0 0.0 -0.0 72.53780364990234 -59.20789337158203 61.34370803833008 2.36395263671875 70.64729309082031 -2.1793553829193115 -1.6526867151260376 8.414182662963867 1.86116623878479
0.3293000005214708 51.72420144081116 -6.922999904418248 -9.40841007232666 -29.75410270690918 9.282393455505371 2.8864357471466064 13.696100234985352 5.584409236907959 3.665977954864502 -7.4861602783203125 1.3254214525222778 -0.4335419535636902 16.058475494384766 6.567098617553711 5.260664939880371 -35.326629638671875 14.937126159667969 -0.0 0.0 -0.0 -0.0 0.0 -0.0 -0.0 0.0 -0.0 68.55119323730469 42.5093994140625 -21.253398895263672 -27.93960189819336 -30.2633056640625 67.66729736328125 -1.0345406532287598 -27.59027671813965 -4.211655616760254 -0.0 0.0 -0.0 -0.0 0.0 -0.0 -0.0 0.0 -0.0 7.73087739944458 5.47489595413208 0.41732463240623474 -0.0 0.0 -0.0 2.9054994583129883 0.9650753736495972 0.10300876200199127 -0.0 0.0 -0.0 10.278595924377441 0.7317469120025635 0.026285577565431595 -0.0 0.0 -0.0 2.221662759780884 -0.7335850596427917 -0.20831839740276337 -0.0 0.0 -0.0 -52.57169723510742 25.630905151367188 -28.80979347229004 19.315805435180664 -12.173585891723633 -37.04990005493164 0.42537084221839905 17.697542190551758 -2.5743772983551025 -0.0 0.0 -0.0 -0.0 0.0 -0.0 -0.0 0.0 -0.0 -7.73087739944458 5.47489595413208 -0.41732463240623474 -0.0 0.0 -0.0 -2.9054994583129883 0.9650753736495972 -0.10300876200199127 -0.0 0.0 -0.0 -10.278595924377441 0.7317469120025635 -0.026285577565431595 -0.0 0.0 -0.0 -2.221662759780884 -0.7335850596427917 0.20831839740276337 -0.0 0.0 -0.0 -16.213703155517578 -2.935340166091919 9.284676551818848 -0.45394769310951233 57.64749526977539 3.245077610015869 -6.094086170196533 -18.588390350341797 -23.153701782226562 -0.0 0.0 -0.0 70.38980102539062 -59.54398727416992 58.7958984375 2.0621562004089355 68.75299835205078 -1.9022263288497925 -1.8804913759231567 9.684986114501953 1.9059216976165771
0.026800002160598524 51.96530222892761 -8.156999894345063 -8.8861083984375 -29.296302795410156 8.830389022827148 2.390805244445801 13.901291847229004 5.816523551940918 3.38594651222229 -7.483479976654053 1.3468682765960693 -0.5510382056236267 16.187267303466797 6.3876824378967285 5.40027379989624 -35.9044189453125 14.664566040039062 -0.0 0.0 -0.0 -0.0 0.0 -0.0 -0.0 0.0 -0.0 67.2835922241211 42.60100173950195 -19.819801330566406 -27.870197296142578 -29.891204833984375 67.08119201660156 -0.9342867136001587 -26.3435001373291 -3.9906787872314453 -0.0 0.0 -0.0 -0.0 0.0 -0.0 -0.0 0.0 -0.0 7.73087739944458 5.47489595413208 0.41732463240623474 -0.0 0.0 -0.0 2.9054994583129883 0.9650753736495972 0.10300876200199127 -0.0 0.0 -0.0 10.278595924377441 0.7317469120025635 0.026285577565431595 -0.0 0.0 -0.0 2.221662759780884 -0.7335850596427917 -0.20831839740276337 -0.0 0.0 -0.0 -53.826995849609375 26.865896224975586 -26.948694229125977 20.124300003051758 -13.171515464782715 -38.97329330444336 0.34565725922584534 16.49230194091797 -2.3847475051879883 -0.0 0.0 -0.0 -0.0 0.0 -0.0 -0.0 0.0 -0.0 -7.73087739944458 5.47489595413208 -0.41732463240623474 -0.0 0.0 -0.0 -2.9054994583129883 0.9650753736495972 -0.10300876200199127 -0.0 0.0 -0.0 -10.278595924377441 0.7317469120025635 -0.026285577565431595 -0.0 0.0 -0.0 -2.221662759780884 -0.7335850596427917 0.20831839740276337 -0.0 0.0 -0.0 -15.471205711364746 -3.840475559234619 10.97610855102539 -0.532163143157959 59.00530242919922 3.2325668334960938 -6.211881160736084 -19.182798385620117 -22.59699821472168 -0.0 0.0 -0.0 67.83749389648438 -59.85248565673828 55.82810592651367 1.773849368095398 66.52619171142578 -1.633857011795044 -2.1105847358703613 11.115890502929688 1.9641289710998535
